<svg width="220" height="220" viewBox="0 0 220 220" fill="none" xmlns="http://www.w3.org/2000/svg">
<path d="M176 110C176 146.451 146.451 176 110 176C73.5492 176 44 146.451 44 110C44 73.5492 73.5492 44 110 44C146.451 44 176 73.5492 176 110Z" fill="#FF5555"/>
<path d="M123.71 109.5L145.035 88.1749C147.655 85.5545 147.655 81.3151 145.035 78.6947L140.305 73.9653C137.685 71.3449 133.445 71.3449 130.825 73.9653L109.5 95.2904L88.1749 73.9653C85.5545 71.3449 81.3151 71.3449 78.6947 73.9653L73.9653 78.716C71.3449 81.3364 71.3449 85.5758 73.9653 88.1962L95.2904 109.5L73.9653 130.825C71.3449 133.445 71.3449 137.685 73.9653 140.305L78.6947 145.035C81.3151 147.655 85.5545 147.655 88.1749 145.035L109.5 123.71L130.825 145.035C133.445 147.655 137.685 147.655 140.305 145.035L145.035 140.305C147.655 137.685 147.655 133.445 145.035 130.825L123.71 109.5Z" fill="#980000"/>
</svg>
